<svg width="24" height="24" viewBox="0 0 24 24" fill="none" xmlns="http://www.w3.org/2000/svg">
<path fill-rule="evenodd" clip-rule="evenodd" d="M7 2C5.67392 2 4.40215 2.52678 3.46447 3.46447C2.52678 4.40215 2 5.67392 2 7V17C2 18.3261 2.52678 19.5979 3.46447 20.5355C4.40215 21.4732 5.67392 22 7 22H17C18.3261 22 19.5979 21.4732 20.5355 20.5355C21.4732 19.5979 22 18.3261 22 17V7C22 5.67392 21.4732 4.40215 20.5355 3.46447C19.5979 2.52678 18.3261 2 17 2H7ZM15.73 10.684C15.8198 10.5881 15.8899 10.4755 15.9362 10.3526C15.9825 10.2296 16.0041 10.0988 15.9998 9.96747C15.9956 9.83617 15.9655 9.707 15.9113 9.58732C15.8571 9.46765 15.7799 9.35982 15.684 9.27C15.5881 9.18018 15.4755 9.11011 15.3526 9.06381C15.2296 9.01751 15.0988 8.99588 14.9675 9.00015C14.8362 9.00442 14.707 9.03451 14.5873 9.08871C14.4677 9.1429 14.3598 9.22014 14.27 9.316L11.187 12.606L9.664 11.253C9.46446 11.0871 9.20825 11.0053 8.9495 11.0248C8.69075 11.0443 8.44972 11.1637 8.27732 11.3576C8.10493 11.5516 8.01467 11.8049 8.02562 12.0642C8.03657 12.3234 8.14787 12.5683 8.336 12.747L10.586 14.747C10.7807 14.9199 11.0352 15.0101 11.2953 14.9983C11.5554 14.9866 11.8007 14.8738 11.979 14.684L15.73 10.684Z" fill="black"/>
</svg>
