<svg width="24" height="24" viewBox="0 0 24 24" fill="none" xmlns="http://www.w3.org/2000/svg">
<path fill-rule="evenodd" clip-rule="evenodd" d="M12 22.5C14.7848 22.5 17.4555 21.3938 19.4246 19.4246C21.3938 17.4555 22.5 14.7848 22.5 12C22.5 9.21523 21.3938 6.54451 19.4246 4.57538C17.4555 2.60625 14.7848 1.5 12 1.5C9.21523 1.5 6.54451 2.60625 4.57538 4.57538C2.60625 6.54451 1.5 9.21523 1.5 12C1.5 14.7848 2.60625 17.4555 4.57538 19.4246C6.54451 21.3938 9.21523 22.5 12 22.5ZM9.795 8.205C9.58174 8.00628 9.29967 7.8981 9.00822 7.90324C8.71676 7.90838 8.43869 8.02645 8.23257 8.23257C8.02645 8.43869 7.90838 8.71676 7.90324 9.00822C7.8981 9.29967 8.00628 9.58174 8.205 9.795L10.41 12L8.205 14.205C8.09447 14.308 8.00582 14.4322 7.94433 14.5702C7.88284 14.7082 7.84978 14.8572 7.84711 15.0082C7.84445 15.1593 7.87223 15.3093 7.92882 15.4494C7.9854 15.5895 8.06961 15.7167 8.17644 15.8236C8.28327 15.9304 8.41052 16.0146 8.5506 16.0712C8.69069 16.1278 8.84073 16.1556 8.99178 16.1529C9.14284 16.1502 9.29181 16.1172 9.42981 16.0557C9.56781 15.9942 9.69201 15.9055 9.795 15.795L12 13.59L14.205 15.795C14.308 15.9055 14.4322 15.9942 14.5702 16.0557C14.7082 16.1172 14.8572 16.1502 15.0082 16.1529C15.1593 16.1556 15.3093 16.1278 15.4494 16.0712C15.5895 16.0146 15.7167 15.9304 15.8236 15.8236C15.9304 15.7167 16.0146 15.5895 16.0712 15.4494C16.1278 15.3093 16.1556 15.1593 16.1529 15.0082C16.1502 14.8572 16.1172 14.7082 16.0557 14.5702C15.9942 14.4322 15.9055 14.308 15.795 14.205L13.59 12L15.795 9.795C15.9055 9.69201 15.9942 9.56781 16.0557 9.42981C16.1172 9.29181 16.1502 9.14284 16.1529 8.99178C16.1556 8.84073 16.1278 8.69069 16.0712 8.5506C16.0146 8.41052 15.9304 8.28327 15.8236 8.17644C15.7167 8.06961 15.5895 7.9854 15.4494 7.92882C15.3093 7.87223 15.1593 7.84445 15.0082 7.84711C14.8572 7.84978 14.7082 7.88284 14.5702 7.94433C14.4322 8.00582 14.308 8.09447 14.205 8.205L12 10.41L9.795 8.205Z" fill="black"/>
</svg>
